# xmcd
#
# Track frame offsets:
#	150
#	12553
#	28294
#	41872
#	54684
#	78142
#	100475
#	116065
#	135097
#	160917
#	180924
#	195428
#	213021
#	255213
#	283443
#
# Disc length: 3958 seconds
#
# Revision: 1
# Processed by: cddbd v1.5.2PL0 Copyright (c) Steve Scherf et al.
# Submitted via: audiograbber 1.83.01
#
DISCID=c90f740f
DTITLE=INSP Music - Prtomotional
DYEAR=1900
DGENRE=
TTITLE0=The Inspirational Singers - Do You Hear What I Hear
TTITLE1=The Inspirational Singers - O Come All Ye Faithful
TTITLE2=The Inspirational Singers - Silent Night
TTITLE3=The Inspirational Singers - Silver Bells
TTITLE4=Carla Burleson - Alabaster Box
TTITLE5=Carla Burleson - Lord Have Mercy
TTITLE6=Carla Burleson - Back To You
TTITLE7=Carla Burleson - Praise Him
TTITLE8=Steve Furguson - Lift Up The Name
TTITLE9=Steve Furguson - It's Still The Cross
TTITLE10=Steve Furguson - Let The River Flow
TTITLE11=Steve Furguson - Your Love
TTITLE12=The Inspirational Singers - In The Presence Of Jehovah
TTITLE13=The Inspirational Singers - I Bow On My Knees
TTITLE14=The Inspirational Singers - Holy Ground
EXTD=
EXTT0=
EXTT1=
EXTT2=
EXTT3=
EXTT4=
EXTT5=
EXTT6=
EXTT7=
EXTT8=
EXTT9=
EXTT10=
EXTT11=
EXTT12=
EXTT13=
EXTT14=
PLAYORDER=
